<?xml version="1.0" encoding="utf-8"?>
<!-- Generator: Adobe Illustrator 26.5.0, SVG Export Plug-In . SVG Version: 6.00 Build 0)  -->
<svg version="1.1" xmlns="http://www.w3.org/2000/svg" xmlns:xlink="http://www.w3.org/1999/xlink" x="0px" y="0px"
	 viewBox="0 0 462.9 350" style="enable-background:new 0 0 462.9 350;" xml:space="preserve">
<style type="text/css">
	.st0{display:none;}
	.st1{display:inline;}
	.st2{fill:#FFFFFF;fill-opacity:0;}
	.st3{fill:#FF0000;fill-opacity:0;}
	.st4{fill:#FFFFFF;}
</style>
<g id="svg585" xmlns:sodipodi="http://sodipodi.sourceforge.net/DTD/sodipodi-0.dtd" xmlns:svg="http://www.w3.org/2000/svg" xmlns:inkscape="http://www.inkscape.org/namespaces/inkscape" inkscape:dataloss="true" inkscape:export-filename="../eaf6f688/ACES-logo-star-white.svg" inkscape:export-xdpi="96" inkscape:export-ydpi="96" inkscape:version="1.2.1 (0f2f062aeb, 2022-09-21, custom)" sodipodi:docname="ACES-logo-star.png" class="st0">
	
		<sodipodi:namedview  bordercolor="#000000" borderopacity="0.25" id="namedview587" inkscape:current-layer="g591" inkscape:cx="255.95865" inkscape:cy="92.403846" inkscape:deskcolor="#d1d1d1" inkscape:pagecheckerboard="0" inkscape:pageopacity="0.0" inkscape:showpageshadow="2" inkscape:window-height="708" inkscape:window-maximized="1" inkscape:window-width="1360" inkscape:window-x="0" inkscape:window-y="32" inkscape:zoom="0.54110302" pagecolor="#ffffff" showgrid="false">
		</sodipodi:namedview>
	<g id="g591" transform="translate(-366.2799,-158.91038)" inkscape:groupmode="layer" inkscape:label="Image" class="st1">
		<path id="path599" d="M366.3,333.9v-175h231.4h231.4v175v175H597.7H366.3V333.9z M467.3,499.4l4.7-2.6l11.6-6.2l11.6-6.2v-0.3
			v-0.3l0-0.3l0-0.3l0.4-0.5l0.4-0.5l29.1-62l29.1-62l-5.3-0.1l-5.3-0.1l-0.1,0.1l-0.1,0.1L503.9,428l-39.4,69.7l-0.8,1.3l-0.8,1.3
			l0.6-0.5l0.6-0.5v0.3v0.3l-1.2,1l-1.2,1l0.4,0l0.4,0L467.3,499.4L467.3,499.4z M729.9,499.6l-0.2-0.5l-0.5-0.2l-0.5-0.2l0.2-0.4
			l0.2-0.4l-33.9-63.8l-33.9-63.8l-1.8-3.5l-1.8-3.5l-1.2-2.1l-1.2-2.1v-0.3v-0.3H648h-7.1l0.7,1.5l0.7,1.5l26.6,59.4l26.6,59.4
			l0.2,0.9l0.2,0.9l5,2.6l5,2.6l11.8,6.4l11.8,6.4l0.3,0l0.3,0L729.9,499.6L729.9,499.6z M506.5,478.4l1.2-0.6l7.5-4.1l7.5-4.1
			l4-2.1l4-2.1l1.4-0.9l1.4-0.9l-0.2-0.2l-0.2-0.2l0.3-0.4l0.3-0.4l21-51.9l21-51.9l0.2-0.3l0.2-0.3l-7.4,0l-7.4,0l-27.8,59.8
			l-27.8,59.8l-0.3,0.6L505,479h0.1h0.1L506.5,478.4z M685.5,475.1l-0.8-1.8l-25.7-57.4l-25.7-57.4l-5,0l-5,0v0.4v0.4h0.4h0.4v1.1
			v1.1h0.4h0.4v1.1v1.1h0.4h0.4v1.1v1.1h0.4h0.4v1.1v1.1h0.4h0.4v1.1v1.1h0.4h0.4v1.1v1.1h0.4h0.4v1.1v1.1h0.4h0.4v0.9v0.9l0.3,0.2
			l0.3,0.2l0.2,1.4l0.2,1.4l0.5,1l0.5,1l0,0.4l0,0.4l13.8,40l13.8,40l13.5,7.3l13.5,7.3l0.3,0l0.3,0L685.5,475.1L685.5,475.1z
			 M536.7,351.5l61.1-107.2l1.6,0.1l1.6,0.1l0.4,0.5l0.4,0.5l58.4,104.9l58.4,104.9l0.3,0.3l0.3,0.3L703.8,416l-15.3-39.8l0.1-0.9
			l0.1-0.9l66.9-38.6l66.9-38.6l0-0.1l0-0.1l-84.8-1.6l-84.8-1.6l-0.5-0.4l-0.5-0.4l-11.7-27.9l-11.7-27.9l-0.3-0.7l-0.3-0.7l-3.3-8
			l-3.3-8l-0.5-1.1l-0.5-1.1l-3.7-8.9l-3.7-8.9l-0.7-1.5l-0.7-1.5v-0.2v-0.2l-3.3-7.8l-3.3-7.8l-0.3-0.7l-0.3-0.7l-1.3-3.1l-1.3-3.1
			l-1-2.4l-1-2.4l-0.8-1.8l-0.8-1.8l-0.1-0.5l-0.1-0.5l-26.9,64.4l-26.9,64.4l-0.6,0.6l-0.6,0.6l-84.8,1.6L373,297l0,0.1l0,0.1
			l66.9,38.6l66.9,38.6l0.1,0.9l0.1,0.9l-15.6,40.8l-15.6,40.8l-0.3,0.7l-0.3,0.7l0.3-0.3l0.3-0.3L536.7,351.5z"/>
		<path id="path2533" class="st2" d="M484.6,438.8c0-1,5.3-15.6,11.8-32.3c7-18.1,11.2-31.2,10.2-32.4c-0.9-1.1-30.3-18.5-65.4-38.8
			l-63.8-36.8l36.5-1.1c20.1-0.6,56.9-1.3,81.8-1.4c24.9-0.2,46.2-0.9,47.3-1.6c1.1-0.7,13.5-28.8,27.5-62.3
			c14-33.5,26-61.6,26.7-62.4c0.7-0.8,12.8,26.3,26.9,60.1c14.1,33.8,26.9,62.5,28.5,63.8c2.1,1.7,14.8,2.4,47.3,2.6
			c24.5,0.1,61.1,0.8,81.4,1.4l37,1.1L753,336c-35.8,20.7-65.1,38.4-65.1,39.3c0,0.9,4.2,12.6,9.3,26c5.1,13.4,9,25.1,8.7,26.1
			c-0.3,1-23.7-39.9-52-90.9c-35.4-63.9-52.4-92.6-54.4-92.6c-2,0-21.4,32.4-58.9,98.4C509.8,396.5,484.6,439.9,484.6,438.8
			L484.6,438.8z"/>
		<path id="path2535" class="st2" d="M466.1,498.2c0-0.5,17.6-32.2,39.2-70.3c33.4-59.1,39.8-69.3,43.3-69.3c4.1,0,4,0.3-2.9,15.2
			c-31.5,67.9-50.6,108-52.5,109.7C490.1,486.3,466.1,499.3,466.1,498.2L466.1,498.2z"/>
		<path id="path2537" class="st2" d="M508.6,474.3c0-0.3,12-26.3,26.7-57.8l26.7-57.1l6.6-0.6l6.6-0.6l-9.8,23.7
			c-5.4,13-15,36.7-21.3,52.6l-11.5,28.9l-10.8,5.7C511.4,474.6,508.6,475.7,508.6,474.3L508.6,474.3z"/>
		<path id="path2539" class="st2" d="M670.4,467l-11-5.9l-17.1-49.9c-9.4-27.4-17.2-50.6-17.2-51.4c-0.1-0.8,1.6-1.2,3.7-0.9
			c3.1,0.5,8.7,11.4,28.7,56c13.7,30.5,24.6,56,24.4,56.7S676.4,470.2,670.4,467L670.4,467z"/>
		<path id="path2541" class="st3" d="M711.4,489.1c-13.1-7.1-14.6-8.5-18.8-17.9c-2.5-5.6-14.9-33.3-27.6-61.5l-23-51.3l5.9,0
			c5.8,0,6.1,0.5,42.4,68.7c20.1,37.8,36.3,68.9,36,69.2S719.3,493.4,711.4,489.1L711.4,489.1z"/>
		<path id="path2724" class="st3" d="M484.6,438.8c0-1,5.3-15.6,11.8-32.3c7-18.1,11.2-31.2,10.2-32.4c-0.9-1.1-30.3-18.5-65.4-38.8
			l-63.8-36.8l36.5-1.1c20.1-0.6,56.9-1.3,81.8-1.4c24.9-0.2,46.2-0.9,47.3-1.6c1.1-0.7,13.5-28.8,27.5-62.3
			c14-33.5,26-61.6,26.7-62.4c0.7-0.8,12.8,26.3,26.9,60.1c14.1,33.8,26.9,62.5,28.5,63.8c2.1,1.7,14.8,2.4,47.3,2.6
			c24.5,0.1,61.1,0.8,81.4,1.4l37,1.1L753,336c-35.8,20.7-65.1,38.4-65.1,39.3c0,0.9,4.2,12.6,9.3,26c5.1,13.4,9,25.1,8.7,26.1
			c-0.3,1-23.7-39.9-52-90.9c-35.4-63.9-52.4-92.6-54.4-92.6c-2,0-21.4,32.4-58.9,98.4C509.8,396.5,484.6,439.9,484.6,438.8
			L484.6,438.8z"/>
		<path id="path2726" class="st3" d="M484.6,438.8c0-1,5.3-15.6,11.8-32.3c7-18.1,11.2-31.2,10.2-32.4c-0.9-1.1-30.3-18.5-65.4-38.8
			l-63.8-36.8l36.5-1.1c20.1-0.6,56.9-1.3,81.8-1.4c24.9-0.2,46.2-0.9,47.3-1.6c1.1-0.7,13.5-28.8,27.5-62.3
			c14-33.5,26-61.6,26.7-62.4c0.7-0.8,12.8,26.3,26.9,60.1c14.1,33.8,26.9,62.5,28.5,63.8c2.1,1.7,14.8,2.4,47.3,2.6
			c24.5,0.1,61.1,0.8,81.4,1.4l37,1.1L753,336c-35.8,20.7-65.1,38.4-65.1,39.3c0,0.9,4.2,12.6,9.3,26c5.1,13.4,9,25.1,8.7,26.1
			c-0.3,1-23.7-39.9-52-90.9c-35.4-63.9-52.4-92.6-54.4-92.6c-2,0-21.4,32.4-58.9,98.4C509.8,396.5,484.6,439.9,484.6,438.8
			L484.6,438.8z"/>
		<path id="path2728" class="st2" d="M484.6,438.8c0-1,5.3-15.6,11.8-32.3c7-18.1,11.2-31.2,10.2-32.4c-0.9-1.1-30.3-18.5-65.4-38.8
			l-63.8-36.8l36.5-1.1c20.1-0.6,56.9-1.3,81.8-1.4c24.9-0.2,46.2-0.9,47.3-1.6c1.1-0.7,13.5-28.8,27.5-62.3
			c14-33.5,26-61.6,26.7-62.4c0.7-0.8,12.8,26.3,26.9,60.1c14.1,33.8,26.9,62.5,28.5,63.8c2.1,1.7,14.8,2.4,47.3,2.6
			c24.5,0.1,61.1,0.8,81.4,1.4l37,1.1L753,336c-35.8,20.7-65.1,38.4-65.1,39.3c0,0.9,4.2,12.6,9.3,26c5.1,13.4,9,25.1,8.7,26.1
			c-0.3,1-23.7-39.9-52-90.9c-35.4-63.9-52.4-92.6-54.4-92.6c-2,0-21.4,32.4-58.9,98.4C509.8,396.5,484.6,439.9,484.6,438.8
			L484.6,438.8z"/>
		<path id="path5795" class="st4" d="M477.3,454.4c0.1-0.5,6.9-18.4,15.1-39.7c9.7-25.2,14.8-39.1,14.6-39.7
			c-0.2-0.7-18.4-11.4-66.7-39.3l-66.5-38.3l15.5-0.3c22.7-0.5,86.1-1.7,122-2.3c27.7-0.5,31.3-0.6,32-1.3
			c0.6-0.5,34.6-81,44.1-104.1l0.7-1.7h9.6h9.6l1.8,4.3c1,2.4,2.3,5.6,3,7.3s3.7,8.8,6.7,15.9s7.1,17,9.2,21.9
			c2.1,5,8.2,19.6,13.6,32.6c5.4,13,10.1,23.8,10.4,24c0.4,0.3,11.7,0.7,32.6,1c42,0.7,103,1.9,121.9,2.3l15.1,0.3L755,335.8
			c-54.8,31.6-66.7,38.7-66.7,39.5c0,0.5,6.4,17.6,14.1,37.9c7.8,20.3,14.1,37,14,37.1c-0.1,0.1-25.9-46.1-57.4-102.6
			c-31.5-56.6-57.5-102.9-57.7-103c-0.3-0.1-1.2-0.2-2.1-0.3l-1.6-0.1L538.4,348C474.4,460.2,477,455.7,477.3,454.4L477.3,454.4z"/>
		<path id="path5797" class="st4" d="M464.2,500.2c0.3-0.4,0.5-0.9,0.4-1.1s17.6-32,39.4-70.5l39.5-70l5.2,0c3.7,0,5.1,0.1,4.9,0.5
			c-0.2,0.3-13.5,28.6-29.6,62.9l-29.2,62.4l-15.4,8.3c-8.4,4.5-15.5,8.3-15.6,8.3C463.8,500.8,463.9,500.5,464.2,500.2z"/>
		<path id="path5799" class="st4" d="M505.9,477.8c0.1-0.2,12.6-27.1,27.8-59.8l27.7-59.5h7h7l-1.6,4c-0.9,2.2-10.3,25.4-20.8,51.4
			s-19.4,47.9-19.7,48.6c-0.5,1.4-1.1,1.7-17,10.3C506.8,478,505.5,478.6,505.9,477.8L505.9,477.8z"/>
		<path id="path5801" class="st4" d="M672.6,469.3c-7-3.8-12.9-7.1-13.2-7.4s-6.4-17.6-13.6-38.5c-14-40.6-16.1-47.1-16.1-48.4
			c0-0.4-0.2-0.8-0.5-0.8s-0.5-0.5-0.5-1.2c0-0.6-0.2-1.2-0.4-1.2s-0.6-0.9-0.7-2.1c-0.2-1.1-0.5-2.1-0.7-2.1s-0.5-0.9-0.7-2.1
			c-0.2-1.1-0.5-2.1-0.7-2.1c-0.2,0-0.5-1-0.7-2.2c-0.2-1.2-0.6-2.3-0.9-2.5c-0.3-0.2,1.7-0.3,4.3-0.3l4.9,0l26.3,58.7
			c14.4,32.3,26.2,58.8,26.1,58.8C685.4,476.1,679.6,473.1,672.6,469.3L672.6,469.3z"/>
		<path id="path5803" class="st4" d="M713.3,491.1c-8-4.3-15.2-8.2-15.9-8.6c-0.7-0.5-1.6-1.6-1.9-2.5c-0.3-0.9-12.3-27.7-26.6-59.6
			c-14.3-31.9-26.4-58.9-26.9-59.9l-0.8-2h6.9c4.3,0,6.9,0.2,6.9,0.5c0,0.3,16.5,31.5,36.7,69.5s36.7,69.4,36.7,69.8
			c0,0.4-0.2,0.7-0.3,0.7C728,498.9,721.3,495.4,713.3,491.1z"/>
		<path id="path5938" class="st4" d="M477.3,454.4c0.1-0.5,6.2-16.5,13.5-35.6c16-41.7,16.5-43,16.1-43.9
			c-0.4-0.9,0.2-0.6-72.5-42.6l-60.6-35l15.3-0.3c20.3-0.4,84.1-1.6,121.6-2.3c16.5-0.3,30.7-0.7,31.4-0.8c1-0.2,1.6-0.8,2.3-2.1
			c1-2.2,13.5-31.8,36.3-86.3c9.2-22,16.9-40.1,17.1-40.1s0.5,0.6,0.8,1.3s3.2,7.7,6.5,15.6c6.1,14.4,12.3,29.2,33.1,79
			c6.3,15,11.9,28.4,12.6,29.9l1.2,2.6l2.4,0.2c1.3,0.1,21.5,0.6,44.9,1c48.9,0.8,113.9,2,119,2.2l3.5,0.1l-59.6,34.4
			c-71.3,41.2-73.3,42.4-73.7,43.3c-0.1,0.4,0.4,2.5,1.2,4.7c0.8,2.2,7.2,18.9,14.2,37c7,18.2,12.6,33.2,12.5,33.4s-1.7-2.4-3.5-5.8
			c-1.9-3.4-23.7-42.6-48.6-87.2c-24.8-44.6-49.1-88.1-53.9-96.8l-8.8-15.7l-1.8-0.4c-1-0.2-1.9-0.2-2.1,0
			c-0.4,0.4-8.3,14.2-74.8,130.9c-25,43.8-45.5,79.8-45.7,79.9C477.1,455.2,477.1,454.9,477.3,454.4L477.3,454.4z"/>
	</g>
</g>
<g id="Layer_2">
	
		<image style="display:none;overflow:visible;" width="1271" height="961" xlink:href="ACES-logo-star.png"  transform="matrix(0.75 0 0 0.75 -1253.1381 324.8167)">
	</image>
	<path d="M438.5,141.8c-8.2,4.7-16.4,9.4-24.6,14.1c-8.1,4.7-16.2,9.4-24.3,14.1c-7,4.1-14.1,8.1-21.2,12.1
		c-8.1,4.7-16.2,9.4-24.3,14.1c-7.5,4.4-15.1,8.7-22.6,13c-1.9,1.1-3.7,2.1-5.6,3.2c-1.1,0.6-1,1.7-0.6,2.7
		c3.2,8.3,6.4,16.6,9.6,24.9c3.6,9.5,7.3,19,10.9,28.5c2.2,5.9,4.5,11.7,6.9,17.9c-4.6-8.3-9.1-16.4-13.6-24.5
		c-6.2-11.1-12.4-22.1-18.6-33.2c-4.7-8.4-9.3-16.9-14-25.3c-6.3-11.3-12.6-22.5-18.9-33.8c-4.1-7.4-8.2-14.8-12.3-22.2
		c-5.2-9.3-10.4-18.5-15.6-27.8c-4.1-7.4-8.2-14.8-12.3-22.2c-0.5-0.9-1.1-1.8-1.5-2.8c-0.5-1.1-1.2-1.7-2.5-2
		c-1.1-0.2-1.9-0.1-2.5,1c-2,3.6-4.1,7.2-6.1,10.7c-4,7-8,13.9-11.9,20.9c-3.8,6.6-7.5,13.3-11.3,19.9c-4,7-8,13.9-11.9,20.9
		c-3.9,6.8-7.7,13.7-11.6,20.5c-3.8,6.7-7.7,13.4-11.6,20.1c-3.4,6-6.8,12-10.2,18c-4,7-8,14-12,21c-3.8,6.7-7.6,13.4-11.4,20
		c-4.4,7.7-8.8,15.4-13.2,23.1c-0.3,0.5-0.6,1.1-0.9,1.8c4.4-11.4,8.7-22.6,13-33.8c3.7-9.6,7.3-19.2,11-28.8
		c1.5-3.8,2.9-7.6,4.4-11.4c1.1-2.8,1-3.2-1.5-4.7c-12.6-7.4-25.3-14.8-37.9-22.1c-12.7-7.3-25.4-14.6-38.1-21.9
		c-12.2-7-24.4-14.1-36.6-21.2c-2.8-1.6-5.6-3.2-8.7-5.1c3.4,0,6.5,0,9.6,0c6.6-0.1,13.2-0.2,19.8-0.3c5.9-0.1,11.7-0.2,17.6-0.3
		c6.2-0.1,12.3-0.2,18.5-0.3c5.7-0.1,11.4-0.2,17.1-0.3c6.3-0.1,12.5-0.2,18.8-0.3c5.8-0.1,11.6-0.2,17.4-0.3
		c6.1-0.1,12.2-0.2,18.3-0.3c5.6-0.1,11.3-0.2,16.9-0.3c2.9,0,3.2-0.2,4.3-2.8c2.5-6,5-12,7.5-18c3.4-8.2,6.9-16.4,10.3-24.6
		c5.4-12.9,10.8-25.8,16.1-38.7c4.8-11.4,9.6-22.8,14.4-34.2c0.1-0.4,0.3-0.7,0.5-1.5c2.7,6.4,5.2,12.4,7.8,18.5
		c3.1,7.5,6.3,15,9.4,22.5c2.9,7,5.9,14.1,8.8,21.1c3.5,8.3,7,16.6,10.4,24.9c4.2,10,8.3,20,12.5,30.1c1.1,2.5,1.4,2.7,4.1,2.7
		c10.5,0.1,21,0.2,31.6,0.3c6.3,0.1,12.5,0.2,18.8,0.3c5.7,0.1,11.4,0.2,17.1,0.3c6.3,0.1,12.5,0.2,18.8,0.3
		c5.8,0.1,11.6,0.2,17.4,0.3c6.2,0.1,12.4,0.2,18.6,0.3c5.7,0.1,11.4,0.3,17.1,0.3c4.8,0.1,9.6,0,14.4,0
		C438.5,141.5,438.5,141.7,438.5,141.8z M353.8,329c-0.3-0.5-0.8-0.9-1-1.4c-3.5-6.7-7.1-13.4-10.6-20.1
		c-5.8-10.9-11.6-21.8-17.3-32.6c-3.7-7-7.5-14.1-11.2-21.1c-5.7-10.7-11.4-21.5-17.1-32.2c-3.8-7.1-7.6-14.2-11.4-21.4
		c-0.7-1.3-1.5-1.8-3-1.7c-3,0.1-5.9,0-8.9,0c-0.4,0-0.8,0.1-1.4,0.1c0.4,0.9,0.6,1.6,1,2.3c3.1,7,6.3,13.9,9.4,20.9
		c4.1,9.3,8.2,18.5,12.4,27.8c3.1,7,6.3,14,9.5,21c3.8,8.5,7.6,17,11.4,25.5c2.3,5.3,4.5,10.6,6.8,16c0.2,0.4,0.4,0.7,0.8,0.9
		c6.9,3.6,13.9,7.2,20.8,10.8c3.3,1.7,6.5,3.6,9.7,5.4C353.6,329.1,353.7,329,353.8,329z M182.4,198.2c-0.5,0-1,0.6-1.3,1
		c-2.3,3.9-4.6,7.9-6.8,11.9c-3.2,5.6-6.3,11.3-9.5,16.9c-3.6,6.4-7.3,12.8-10.9,19.2c-3.1,5.5-6.2,11-9.3,16.5
		c-3.8,6.6-7.5,13.3-11.3,19.9c-3.1,5.5-6.2,11-9.3,16.5c-4.1,7.2-8.1,14.5-12.3,21.6c-1.8,3-2.8,6.4-5.3,8.9c0,0,0,0.2,0,0.3
		c0.1,0,0.3,0.1,0.3,0c4-2.2,8-4.6,12-6.7c4.1-2.2,8.3-4.1,12.3-6.4c2.5-1.4,5.3-2.2,6.7-5.4c4.9-11.3,10.3-22.4,15.5-33.5
		c3.3-7.1,6.6-14.1,9.9-21.2c5.1-11,10.3-21.9,15.4-32.9c3.1-6.5,6.2-13,9.2-19.5c1.1-2.2,2.1-4.5,3.2-7
		C188,198.1,185.2,198.1,182.4,198.2z M146.4,309.7c0.3-0.3,0.6-0.6,1-0.8c4-2.2,8-4.3,12.1-6.5c3.2-1.7,6.4-3.3,9.6-5
		c1-0.5,2.4-1,2.9-1.9c1.2-2.4,2-5,3-7.5c5.7-14.2,11.5-28.4,17.2-42.5c4.7-11.6,9.3-23.1,14-34.7c1.7-4.1,3.3-8.2,5.1-12.6
		c-4.3,0-8.4,0-12.4,0c-0.4,0-0.9,0.5-1.1,0.8c-2.3,4.9-4.6,9.9-6.9,14.8c-4.9,10.7-9.9,21.3-14.8,32c-2.8,5.9-5.6,11.8-8.3,17.7
		c-5.3,11.3-10.5,22.5-15.7,33.8c-1.9,4.1-3.8,8.1-5.7,12.2C146.2,309.6,146.3,309.6,146.4,309.7z M258.8,207.4
		c1.6,4.8,3,9.6,4.6,14.3c2.6,7.9,5.4,15.7,8,23.5c5.5,16.1,11,32.2,16.5,48.3c0.1,0.2,0.3,0.5,0.6,0.6c4,2.2,8,4.4,12,6.6
		c2.5,1.4,5,2.8,7.4,4.1c1.7,0.9,3.5,1.8,5.6,2.8c-0.5-0.9-0.9-1.6-1.2-2.3c-2.1-4.7-4.3-9.4-6.4-14.2c-4.2-9.5-8.5-18.9-12.7-28.4
		c-5.3-11.8-10.6-23.7-15.9-35.5c-4.2-9.3-8.3-18.6-12.5-27.9c-0.2-0.5-1-1-1.5-1c-2.5-0.1-4.9,0-7.7,0
		C256.7,201.6,257.8,204.5,258.8,207.4z M219.1,173.2l28,0.2c1.6,0,2.6-1.7,1.7-3.1l-14-23c-0.8-1.3-2.7-1.3-3.5,0l-14,22.8
		C216.6,171.4,217.5,173.1,219.1,173.2z"/>
</g>
</svg>
